# xmcd
#
# Track frame offsets: 
#        150
#        27743
#        46924
#        64510
#        101357
#        120858
#        143365
#        168384
#        193369
#        227294
#
# Disc length: 3182 seconds
#
# Revision: 0
# Processed by: cddbd v1.5.2PL0 Copyright (c) Steve Scherf et al.
# Submitted via: ExactAudioCopy v1.0b4
#
DISCID=770c6c0a
DTITLE=Little Mike and The Tornadoes - Live At The St. Augustine Bluzfes
DTITLE=t
DYEAR=2015
DGENRE=Blues
TTITLE0=Another Mule Kickin' In My Stall
TTITLE1=Big Town Playboy
TTITLE2=Elgin Shuffle
TTITLE3=Jelly Roll Baker
TTITLE4=Nadine
TTITLE5=Look Over Yonder's Wall
TTITLE6=Never Get Out Of These Blues Alive
TTITLE7=How Long
TTITLE8=Rock Me
TTITLE9=Mojo Outro
EXTD=
EXTT0=
EXTT1=
EXTT2=
EXTT3=
EXTT4=
EXTT5=
EXTT6=
EXTT7=
EXTT8=
EXTT9=
PLAYORDER=
